<?xml version="1.0" encoding="UTF-8"?>
<svg id="Black" xmlns="http://www.w3.org/2000/svg" viewBox="0 0 770.76 798.43">
  <path d="M638.07,345.74c-27.92,38.79-71.62,59.58-99.84,62.54-10.68,1.12-19.73-.62-23.99-4.42-2.14-2.08-3.57-4.63-3.81-6.92-.36-3.43,1.23-6.69,3.9-6.97.76-.08,1.94.19,2.79.87,7.5,5.38,19.3,7.61,30.36,6.45,24.41-2.57,53.47-19.51,69.56-53.58,4.41-9.34,5.96-20.29,4.84-30.97-4.13-39.28-43.56-80.63-112.21-73.42-24.02,2.53-47.36,11.53-69.97,31.26-.74.63-1.47,1.26-2.19,1.89-2.46-4.03-5.15-7.91-8.08-11.61,17.6-12.26,49.46-28.33,94.84-33.1,73.98-7.77,122.93,28.72,127.38,71.05,1.64,15.64-2.44,31.88-13.58,46.93Z"/>
  <path d="M404.22,391.52c.2,1.91-.48,2.75-2.01,2.91-1.91.2-5.5-.96-10.13-4.72-9.7-7.84-15.9-19.15-17.34-32.87-2.32-22.08,6.78-49.49,28.72-73.55,3.4,6.12,6.22,12.51,8.51,19.05-12.36,19.44-18.98,41.05-16.9,60.84.84,8.01,2.49,16.32,7.06,23.16,1.39,2.17,1.97,4.04,2.09,5.18Z"/>
  <path d="M575.64,585.84c-60.75,50.04-129.78,70.5-207.95,62.16-40.62-4.31-80.04-18.1-114.86-39.25,61.07,36.9,136.07,48.57,205.67,33.55,32.23-7.18,62.85-21,90.22-39.37,108.61-72.6,157.84-210.3,108.35-333.07-22.43-58.95-65.94-109.3-121.26-139.61-42.85-23.89-101.1-40.86-150.32-38.18-65.04,4.09-129.35,29.31-177.21,73.96-47.49,44.32-79.07,106.11-84.88,170.97-8.09,89.65,23.04,181.15,110.03,219.56,18.54,8.41,38.78,14.04,59.07,15.77,10.18.99,20.56.95,30.77.39,10.72-.59,71.48-7.09,104.63-52.99,6.14-8.5,9.09-15.35,14.74-28.71,26.16-61.85,27.27-117.92,48.1-171.44,1.58-4.05,6.02-16.41,17.82-26.06,9.83-8.05,22.17-11.85,36.99-13.63,6.11-.64,8.6,1.03,8.76,2.55.16,1.53-1.25,2.83-4.68,3.19-34.21,3.6-44.33,129.37-85.53,201.83-2.21,4.53-4.55,8.98-7,13.37-27.9,52.86-73.21,82.32-133.08,85.23-10.89.52-21.92.46-32.76-.67-21.74-2.02-43.31-8.17-63.1-17.32-91.29-41.1-124.72-137.55-115.37-232.07,6.26-64.57,37.04-126.03,83.38-171.17,50.15-49.05,119.22-76.65,188.89-80.48,50.64-2.42,110.12,15.32,153.96,40.17,56.26,31.36,100.43,83.18,122.86,143.48,44.85,112.88,7.04,241.81-86.24,317.84Z"/>
  <path d="M403.54,450.13c-34.13,34.82-70.72,49.84-114.57,54.45-28.22,2.97-59.21,1.6-94.63-1.62-3.51-.4-10.28-2.39-13.51-.12-2.51,1.81-5.1,2.85-7.01,3.05s-3.13-.44-3.29-1.97c-.08-.76.52-2.37,1.47-4.4,3.51-6.92,15.9-17.48,33.44-19.32,4.19-.44,8.47-.12,12.74.2,3.51.4,6.22.5,8.51.26,3.81-.4,5.98-1.78,8.03-4.31,18.03-19.25,32.37-73.58,61.5-166.86,7.17-23.5,19.5-45.62,59.14-46.31,4.62-.1,6.64.84,6.8,2.37.2,1.91-2.99,4.56-6.8,4.96-3.43.36-8.37,4.74-11.96,10.9-12.87,20.63-45.2,116.56-66.14,155.78-14.17,26.55-25.98,38.97-36.98,44.37-1.1.5-1.41,1.3-1.32,2.07s.54,1.48,2.11,1.71c26.91,2.95,49.13,5.25,70.11,3.04,25.93-2.73,48.81-12.46,74.25-38.26,26.84-27.11,40.11-73.23,35.58-116.33-6.33-60.25-47.59-115.29-135.3-106.08-3.81.4-7.63.8-11.78,1.62-57.65,9.14-114.29,64.45-109.28,112.12.68,6.48,2.55,13.23,5.9,19.43,1.38,2.17,1.97,4.03,2.09,5.18.2,1.91-.48,2.75-2.01,2.91-1.91.2-5.54-1.35-10.18-5.1-9.65-7.47-14.97-17.71-16.21-29.53-4.01-38.14,35.78-92.44,127.25-113.62,9.79-2.19,19.25-3.95,28.02-4.87,90-9.46,146.39,42.83,153.24,108.05,4.29,40.81-10.51,87.09-49.19,126.24Z"/>
</svg>